<?xml version="1.0" encoding="utf-8"?>
<!-- Generator: Adobe Illustrator 26.0.2, SVG Export Plug-In . SVG Version: 6.00 Build 0)  -->
<svg version="1.1" id="Warstwa_1" xmlns="http://www.w3.org/2000/svg" xmlns:xlink="http://www.w3.org/1999/xlink" x="0px" y="0px"
	 viewBox="0 0 86.9 26.1" style="enable-background:new 0 0 86.9 26.1;" xml:space="preserve">
<style type="text/css">
	.st0{fill:#07253F;}
</style>
<g id="Warstwa_2_00000046337255080161277530000010974148750548350378_">
	<g id="Warstwa_1-2">
		<g id="Warstwa_2-2">
			<g id="Warstwa_1-2-2">
				<path class="st0" d="M86.3,1.8l-2.4,8.9c-0.2,0.7-0.9,1.2-1.7,1c-0.2-0.1-0.5-0.2-0.6-0.4L79,8.7l2.3-2.2c0.4-0.4,0.4-1,0-1.4
					c-0.4-0.4-1-0.4-1.4,0l0,0l-2.3,2.3l-2.6-2.6c-0.5-0.5-0.5-1.4,0-1.9c0.2-0.2,0.4-0.3,0.6-0.3L84.6,0c0.7-0.2,1.5,0.3,1.7,1
					C86.4,1.3,86.4,1.5,86.3,1.8z"/>
			</g>
		</g>
		<path d="M9.7,6.7v2.3H6v11.7H3.2V8.9h-3.7V6.7H9.7z"/>
		<path d="M16,9.9c0.6-0.3,1.3-0.5,2-0.5v2.9h-0.7c-0.7-0.1-1.4,0.2-2,0.6c-0.5,0.6-0.8,1.4-0.7,2.2v5.5h-2.8V9.5h2.8v1.7
			C14.9,10.7,15.4,10.2,16,9.9z"/>
		<path d="M19.8,12.1c0.4-0.8,1-1.5,1.8-2c0.8-0.5,1.7-0.7,2.6-0.7c1.4,0,2.8,0.6,3.7,1.8V9.5h2.8v11.1h-2.8V19
			c-0.4,0.5-0.9,1-1.5,1.3c-0.7,0.4-1.4,0.5-2.2,0.5c-0.9,0-1.8-0.2-2.5-0.7c-0.8-0.5-1.4-1.2-1.8-2c-0.5-0.9-0.7-2-0.7-3
			C19.1,14,19.3,13,19.8,12.1z M27.5,13.3c-0.3-0.5-0.6-0.9-1.1-1.1c-0.9-0.5-2-0.5-2.9,0c-0.4,0.3-0.8,0.7-1.1,1.1
			C22.1,13.8,22,14.4,22,15c0,0.6,0.1,1.2,0.4,1.8c0.2,0.5,0.6,0.9,1.1,1.2c0.4,0.3,0.9,0.4,1.4,0.4c0.5,0,1-0.1,1.5-0.4
			c0.5-0.3,0.9-0.6,1.1-1.1c0.3-0.5,0.4-1.1,0.4-1.8C27.9,14.5,27.8,13.9,27.5,13.3z"/>
		<path d="M38,18l2.8-8.5h3l-4.1,11.1h-3.4L32.2,9.5h3L38,18z"/>
		<path d="M45.6,7.8c-0.3-0.3-0.5-0.7-0.5-1.2c0-0.4,0.2-0.9,0.5-1.2c0.7-0.6,1.8-0.6,2.5,0c0.3,0.3,0.5,0.7,0.5,1.2
			c0,0.4-0.2,0.9-0.5,1.2C47.3,8.4,46.2,8.4,45.6,7.8L45.6,7.8z M48.2,9.5v11.1h-2.8V9.5H48.2z"/>
		<path d="M57.5,9.9c0.6,0.3,1.1,0.7,1.5,1.3V9.5h2.8v11.2c0,1-0.2,1.9-0.6,2.8c-0.4,0.8-1.1,1.5-1.9,1.9c-0.9,0.5-2,0.7-3,0.7
			c-1.4,0.1-2.7-0.3-3.9-1.1c-1-0.7-1.6-1.8-1.7-3h2.8c0.2,0.5,0.5,1,1,1.2c0.5,0.3,1.1,0.5,1.8,0.5c0.7,0,1.5-0.2,2-0.7
			c0.6-0.6,0.8-1.4,0.8-2.2V19c-0.4,0.5-0.9,1-1.5,1.3c-0.7,0.4-1.4,0.5-2.2,0.5c-0.9,0-1.8-0.2-2.6-0.7c-0.8-0.5-1.4-1.2-1.8-2
			c-0.5-0.9-0.7-2-0.7-3c0-1,0.2-2.1,0.7-3c0.4-0.8,1-1.5,1.8-2c0.8-0.5,1.7-0.7,2.6-0.7C56.1,9.4,56.8,9.5,57.5,9.9z M58.6,13.3
			c-0.3-0.5-0.6-0.9-1.1-1.1c-0.9-0.5-2-0.5-2.9,0c-0.5,0.3-0.8,0.6-1.1,1.1c-0.3,0.5-0.4,1.1-0.4,1.7c0,0.6,0.1,1.2,0.4,1.8
			c0.2,0.5,0.6,0.9,1.1,1.1c0.4,0.3,0.9,0.4,1.4,0.4c0.5,0,1-0.1,1.5-0.4c0.5-0.3,0.8-0.7,1.1-1.1c0.3-0.5,0.4-1.1,0.4-1.8
			C59,14.5,58.8,13.9,58.6,13.3L58.6,13.3z"/>
		<path d="M66.5,20.1c-0.8-0.5-1.5-1.2-2-2c-0.5-0.9-0.8-2-0.7-3c0-1,0.2-2.1,0.8-3c0.5-0.8,1.2-1.5,2.1-2c1.8-0.9,4-0.9,5.8,0
			c0.8,0.5,1.5,1.2,2,2c0.5,0.9,0.8,2,0.8,3c0,1.1-0.2,2.1-0.8,3c-0.5,0.8-1.2,1.5-2.1,2c-0.9,0.5-1.9,0.7-2.9,0.7
			C68.4,20.8,67.4,20.6,66.5,20.1z M70.9,18c0.5-0.3,0.8-0.6,1.1-1.1c0.3-0.6,0.4-1.2,0.4-1.8c0.1-0.9-0.2-1.8-0.8-2.4
			c-0.5-0.5-1.2-0.9-2-0.9c-0.8,0-1.5,0.3-2,0.9c-0.6,0.7-0.9,1.5-0.8,2.4c-0.1,0.9,0.2,1.8,0.8,2.4c0.5,0.6,1.2,0.9,2,0.9
			C70,18.4,70.4,18.2,70.9,18z"/>
	</g>
</g>
</svg>
