<?xml version="1.0" encoding="utf-8"?>
<!-- Generator: Adobe Illustrator 26.0.2, SVG Export Plug-In . SVG Version: 6.00 Build 0)  -->
<svg version="1.1" id="Warstwa_1" xmlns="http://www.w3.org/2000/svg" xmlns:xlink="http://www.w3.org/1999/xlink" x="0px" y="0px"
	 viewBox="0 0 86.9 26.1" style="enable-background:new 0 0 86.9 26.1;" xml:space="preserve">
<style type="text/css">
	.st0{fill:#07253F;}
</style>
<g id="Warstwa_2_00000117668891173012850960000009365712313303848857_">
	<g id="Warstwa_1-2">
		<g id="Warstwa_2-2">
			<g id="Warstwa_1-2-2">
				<path class="st0" d="M82.2,1.8L80,10.7c-0.2,0.7-0.8,1.2-1.6,1c-0.2-0.1-0.5-0.2-0.6-0.4l-2.4-2.6l2.2-2.2c0.4-0.4,0.4-1,0-1.4
					s-0.9-0.4-1.3,0l0,0l-2.2,2.3l-2.5-2.7c-0.5-0.5-0.5-1.4,0-1.9c0.2-0.2,0.4-0.3,0.6-0.3L80.6,0c0.7-0.2,1.4,0.3,1.6,1
					C82.3,1.3,82.3,1.5,82.2,1.8z"/>
			</g>
		</g>
		<path d="M10,6.7V9H6.5v11.7H3.9V8.9H0.4V6.7H10z"/>
		<path d="M16,9.9c0.6-0.3,1.2-0.5,1.9-0.5v2.9h-0.7c-0.7-0.1-1.3,0.2-1.9,0.6c-0.5,0.6-0.8,1.4-0.7,2.2v5.5H12V9.5h2.6v1.7
			C14.9,10.7,15.4,10.2,16,9.9z"/>
		<path d="M19.5,12.1c0.4-0.8,0.9-1.5,1.7-2c0.8-0.5,1.6-0.7,2.5-0.7c1.3,0,2.6,0.6,3.5,1.8V9.5h2.6v11.1h-2.6V19
			c-0.4,0.5-0.8,1-1.4,1.3c-0.7,0.4-1.3,0.5-2.1,0.5c-0.8,0-1.7-0.2-2.4-0.7c-0.8-0.5-1.3-1.2-1.7-2c-0.5-0.9-0.7-2-0.7-3
			C18.9,14,19.1,13,19.5,12.1z M26.8,13.3c-0.3-0.5-0.6-0.9-1-1.1c-0.8-0.5-1.9-0.5-2.7,0c-0.4,0.3-0.8,0.7-1,1.1
			c-0.3,0.5-0.4,1.1-0.5,1.7c0,0.6,0.1,1.2,0.4,1.8c0.2,0.5,0.6,0.9,1,1.2c0.4,0.3,0.8,0.4,1.3,0.4s0.9-0.1,1.4-0.4s0.8-0.6,1-1.1
			c0.3-0.5,0.4-1.1,0.4-1.8C27.2,14.5,27.1,13.9,26.8,13.3z"/>
		<path d="M36.7,18l2.6-8.5h2.8l-3.9,11.1H35L31.2,9.5H34L36.7,18z"/>
		<path d="M43.9,7.8c-0.3-0.3-0.5-0.8-0.5-1.2s0.2-0.9,0.5-1.2c0.7-0.6,1.7-0.6,2.4,0c0.3,0.3,0.5,0.7,0.5,1.2
			c0,0.4-0.2,0.9-0.5,1.2C45.5,8.4,44.4,8.4,43.9,7.8L43.9,7.8z M46.3,9.5v11.1h-2.6V9.5H46.3z"/>
		<path d="M55.1,9.9c0.6,0.3,1,0.7,1.4,1.3V9.5h2.6v11.2c0,1-0.2,1.9-0.6,2.8c-0.4,0.8-1,1.5-1.8,1.9c-0.8,0.5-1.9,0.7-2.8,0.7
			c-1.3,0.1-2.5-0.3-3.7-1.1c-0.9-0.7-1.5-1.8-1.6-3h2.6c0.2,0.5,0.5,1,0.9,1.2c0.5,0.3,1,0.5,1.7,0.5s1.4-0.2,1.9-0.7
			c0.6-0.6,0.8-1.4,0.8-2.2V19c-0.4,0.5-0.8,1-1.4,1.3c-0.7,0.4-1.3,0.5-2.1,0.5s-1.7-0.2-2.5-0.7s-1.3-1.2-1.7-2
			c-0.5-0.9-0.7-2-0.7-3s0.2-2.1,0.7-3c0.4-0.8,0.9-1.5,1.7-2s1.6-0.7,2.5-0.7C53.8,9.4,54.4,9.5,55.1,9.9z M56.1,13.3
			c-0.3-0.5-0.6-0.9-1-1.1c-0.8-0.5-1.9-0.5-2.7,0c-0.5,0.3-0.8,0.6-1,1.1C51.1,13.8,51,14.4,51,15s0.1,1.2,0.4,1.8
			c0.2,0.5,0.6,0.9,1,1.1c0.4,0.3,0.8,0.4,1.3,0.4s0.9-0.1,1.4-0.4s0.8-0.7,1-1.1c0.3-0.5,0.4-1.1,0.4-1.8
			C56.5,14.5,56.3,13.9,56.1,13.3L56.1,13.3z"/>
		<path d="M63.6,20.1c-0.8-0.5-1.4-1.2-1.9-2c-0.5-0.9-0.8-2-0.7-3c0-1,0.2-2.1,0.8-3c0.5-0.8,1.1-1.5,2-2c1.7-0.9,3.8-0.9,5.5,0
			c0.8,0.5,1.4,1.2,1.9,2c0.5,0.9,0.8,2,0.8,3c0,1.1-0.2,2.1-0.8,3c-0.5,0.8-1.1,1.5-2,2c-0.8,0.5-1.8,0.7-2.7,0.7
			C65.4,20.8,64.4,20.6,63.6,20.1z M67.7,18c0.5-0.3,0.8-0.6,1-1.1c0.3-0.6,0.4-1.2,0.4-1.8c0.1-0.9-0.2-1.8-0.8-2.4
			c-0.5-0.5-1.1-0.9-1.9-0.9s-1.4,0.3-1.9,0.9c-0.6,0.7-0.8,1.5-0.8,2.4c-0.1,0.9,0.2,1.8,0.8,2.4c0.5,0.6,1.1,0.9,1.9,0.9
			C66.9,18.4,67.2,18.2,67.7,18z"/>
	</g>
</g>
</svg>
